<?xml version="1.0" encoding="utf-8"?>
<!-- Generator: Adobe Illustrator 27.3.1, SVG Export Plug-In . SVG Version: 6.00 Build 0)  -->
<svg version="1.1" id="Capa_1" xmlns="http://www.w3.org/2000/svg" xmlns:xlink="http://www.w3.org/1999/xlink" x="0px" y="0px"
	 viewBox="0 0 150 150" style="enable-background:new 0 0 150 150;" xml:space="preserve">
<style type="text/css">
	.st0{fill:#505050;}
	.st1{fill:#1A1A1A;}
	.st2{fill:#393939;}
	.st3{fill:#040404;}
</style>
<g>
	<path class="st0" d="M121.1,57.9l-22,16.4v35.8h15.4c3.6,0,6.6-2.9,6.6-6.6V57.9z"/>
	<path class="st1" d="M28.9,57.9l21.9,16.5v35.8H35.5c-3.6,0-6.6-2.9-6.6-6.6V57.9z"/>
	<polygon class="st1" points="99.1,46.9 75,65 50.9,46.9 50.9,74.3 75,92.4 99.1,74.3 	"/>
	<path class="st2" d="M28.9,49.3v8.6l21.9,16.5V46.9L44,41.8c-1.6-1.2-3.6-1.9-5.7-1.9l0,0C33.1,39.9,28.9,44.1,28.9,49.3z"/>
	<path class="st3" d="M121.1,49.3v8.6l-22,16.4V46.9l6.9-5.1c1.6-1.2,3.6-1.9,5.7-1.9l0,0C116.9,39.9,121.1,44.1,121.1,49.3z"/>
</g>
</svg>
