<?xml version="1.0" encoding="utf-8"?>
<!-- Generator: Adobe Illustrator 27.3.1, SVG Export Plug-In . SVG Version: 6.00 Build 0)  -->
<svg version="1.1" id="Layer_45" xmlns="http://www.w3.org/2000/svg" xmlns:xlink="http://www.w3.org/1999/xlink" x="0px" y="0px"
	 viewBox="0 0 24 24" style="enable-background:new 0 0 24 24;" xml:space="preserve">
<path d="M2.2,12.1L2.2,12.1c0.4,0,0.8,0.3,0.8,0.8v2.5c0,0.4-0.3,0.8-0.8,0.8l0,0c-0.4,0-0.8-0.3-0.8-0.8v-2.5
	C1.5,12.5,1.8,12.1,2.2,12.1z"/>
<path d="M5.2,10.5L5.2,10.5c0.4,0,0.8,0.3,0.8,0.8v5C6,16.7,5.7,17,5.2,17l0,0c-0.4,0-0.8-0.3-0.8-0.8v-5
	C4.5,10.8,4.8,10.5,5.2,10.5z"/>
<path d="M8.2,8L8.2,8C8.7,8,9,8.3,9,8.8v7.5C9,16.7,8.7,17,8.2,17l0,0c-0.4,0-0.8-0.3-0.8-0.8V8.8C7.5,8.3,7.8,8,8.2,8z"/>
<path d="M11.2,6L11.2,6C11.7,6,12,6.3,12,6.8v9.5c0,0.4-0.3,0.8-0.8,0.8l0,0c-0.4,0-0.8-0.3-0.8-0.8V6.8C10.5,6.3,10.8,6,11.2,6z"/>
<path d="M19.6,11.2c-0.3,0-0.5,0-0.8,0.1c0.1-0.4,0.2-0.8,0.2-1.3c0-2.6-2.1-4.6-4.6-4.6c-0.3,0-0.6,0-0.9,0.1V17h6.1
	c1.6,0,2.9-1.3,2.9-2.9S21.2,11.2,19.6,11.2z"/>
</svg>
